HIERARCHY
ROOT Hips
{
 OFFSET 0.000000 0.000000 0.000000
 CHANNELS 6 Xposition Yposition Zposition Yrotation Xrotation Zrotation
 JOINT Chest
 {
  OFFSET 0.000000 9.585900 0.002600
  CHANNELS 3 Yrotation Xrotation Zrotation
  JOINT Chest2
  {
   OFFSET 0.000000 9.601200 -0.005300
   CHANNELS 3 Yrotation Xrotation Zrotation
   JOINT Chest3
   {
    OFFSET 0.000000 9.561800 0.000000
    CHANNELS 3 Yrotation Xrotation Zrotation
    JOINT Chest4
    {
     OFFSET 0.000000 9.552100 0.000000
     CHANNELS 3 Yrotation Xrotation Zrotation
     JOINT Neck
     {
      OFFSET 0.000000 14.453000 0.000000
      CHANNELS 3 Yrotation Xrotation Zrotation
      JOINT Head
      {
       OFFSET 0.000000 8.936500 -0.011300
       CHANNELS 3 Yrotation Xrotation Zrotation
       End Site
       {
        OFFSET 0.000000 17.073600 -0.006000
       }
      }
     }
     JOINT RightCollar
     {
      OFFSET -2.921100 9.558500 0.000000
      CHANNELS 3 Yrotation Xrotation Zrotation
      JOINT RightShoulder
      {
       OFFSET -13.519700 0.000000 0.000000
       CHANNELS 3 Yrotation Xrotation Zrotation
       JOINT RightElbow
       {
        OFFSET 0.000000 -29.696600 0.000000
        CHANNELS 3 Yrotation Xrotation Zrotation
        JOINT RightWrist
        {
         OFFSET 0.000000 -24.004700 0.000000
         CHANNELS 3 Yrotation Xrotation Zrotation
         End Site
         {
          OFFSET 0.000000 -17.728500 0.000000
         }
        }
       }
      }
     }
     JOINT LeftCollar
     {
      OFFSET 2.921100 9.558500 0.000000
      CHANNELS 3 Yrotation Xrotation Zrotation
      JOINT LeftShoulder
      {
       OFFSET 13.519700 0.000000 0.000000
       CHANNELS 3 Yrotation Xrotation Zrotation
       JOINT LeftElbow
       {
        OFFSET 0.000000 -29.696600 0.000000
        CHANNELS 3 Yrotation Xrotation Zrotation
        JOINT LeftWrist
        {
         OFFSET 0.000000 -24.004700 0.000000
         CHANNELS 3 Yrotation Xrotation Zrotation
         End Site
         {
          OFFSET 0.000000 -17.728500 0.000000
         }
        }
       }
      }
     }
    }
   }
  }
 }
 JOINT RightHip
 {
  OFFSET -7.771700 -0.012900 -0.001300
  CHANNELS 3 Yrotation Xrotation Zrotation
  JOINT RightKnee
  {
   OFFSET 0.000000 -40.869800 0.001200
   CHANNELS 3 Yrotation Xrotation Zrotation
   JOINT RightAnkle
   {
    OFFSET 0.000000 -39.717900 0.002100
    CHANNELS 3 Yrotation Xrotation Zrotation
    JOINT RightToe
    {
     OFFSET 0.000000 -4.965400 11.033500
     CHANNELS 3 Yrotation Xrotation Zrotation
     End Site
     {
      OFFSET 0.000000 -1.423100 5.872300
     }
    }
   }
  }
 }
 JOINT LeftHip
 {
  OFFSET 7.771700 -0.012900 -0.001300
  CHANNELS 3 Yrotation Xrotation Zrotation
  JOINT LeftKnee
  {
   OFFSET 0.000000 -40.869800 0.001200
   CHANNELS 3 Yrotation Xrotation Zrotation
   JOINT LeftAnkle
   {
    OFFSET 0.000000 -39.717900 0.002100
    CHANNELS 3 Yrotation Xrotation Zrotation
    JOINT LeftToe
    {
     OFFSET 0.000000 -4.965400 11.033500
     CHANNELS 3 Yrotation Xrotation Zrotation
     End Site
     {
      OFFSET 0.000000 -1.423100 5.872300
     }
    }
   }
  }
 }
}
MOTION
Frames: 11
Frame Time: 0.008333
0.000000 85.388000 0.000000 0.000000 -5.767877 0.000000 0.000000 11.653817 0.000000 0.000000 -5.885947 0.000000 0.000000 -0.000000 0.000000 0.000000 -0.000000 0.000000 0.000000 12.528835 0.000000 0.000000 0.711642 0.000000 0.000000 -0.000000 0.000000 0.000000 0.000000 -90.000000 0.000000 -2.309062 0.000000 0.000000 2.309062 0.000000 0.000000 -0.000000 0.000000 0.000000 -0.000000 90.000000 0.000000 -2.309062 0.000000 0.000000 2.309062 0.000000 0.000000 8.520406 0.000000 0.000000 1.905762 0.000000 -0.000000 -4.658285 0.000000 0.000000 -0.000000 0.000000 0.000000 8.520406 0.000000 0.000000 1.905762 0.000000 -0.000000 -4.658285 0.000000 0.000000 -0.000000 0.000000
-39.034544 57.788905 12.152682 176.198770 -45.050211 -2.220992 3.103550 20.526535 3.432988 1.553149 11.765079 1.817722 2.039558 14.687282 2.318754 1.575421 11.756740 1.803621 1.692961 13.319881 0.422403 3.027471 -11.022159 0.203766 0.145903 2.067955 -0.033342 -5.407866 -9.139406 -9.765342 -90.796495 -61.351132 136.520207 10.389728 14.513210 -23.882014 -10.026099 -0.149008 0.599812 13.262090 -29.347849 7.912432 175.259224 -60.030117 -174.464275 -13.360576 -13.126170 19.638324 2.811597 -27.084889 -3.863818 -34.436201 74.128088 -38.127523 7.153654 -14.001733 11.080125 -0.002148 -0.035218 0.006822 -6.228505 -23.775342 5.665938 88.454496 81.981911 89.052618 1.576523 -22.119049 -18.915578 0.010823 0.021508 0.029930
-39.040680 57.789058 12.155440 176.209797 -45.050441 -2.234162 3.109776 20.521838 3.434992 1.566766 11.757410 1.809098 2.037693 14.683420 2.312510 1.564420 11.731147 1.747903 1.712204 13.391622 0.498801 3.039035 -10.919451 0.261234 0.119509 2.140414 0.015500 -5.394630 -9.190707 -9.789231 -90.751663 -61.373726 136.448058 10.399402 14.546651 -23.880521 -9.996944 -0.059412 0.659475 13.055510 -28.940162 8.088795 175.602202 -60.019427 -174.762169 -13.504422 -13.388351 19.353190 2.829373 -27.075550 -3.860139 -34.395839 74.118318 -38.082513 7.151969 -14.000098 11.089854 -0.001122 -0.030191 0.010320 -6.223061 -23.779864 5.680269 88.460986 81.991991 89.057804 1.573586 -22.116055 -18.919193 0.014236 0.018944 0.036590
-39.048931 57.789573 12.158030 176.241792 -45.051270 -2.259084 3.097832 20.518781 3.430756 1.572344 11.747981 1.792044 2.035144 14.676363 2.304006 1.553226 11.728775 1.734509 1.735864 13.425076 0.543669 3.043208 -10.825370 0.315353 0.088891 2.208255 0.033805 -5.381842 -9.256942 -9.815276 -90.688350 -61.335889 136.402036 10.444610 14.615094 -23.889097 -9.947019 0.042174 0.679576 12.912139 -28.582070 8.234142 175.916464 -59.945154 -175.081122 -13.609787 -13.666722 19.042556 2.839398 -27.062397 -3.860445 -34.357463 74.108288 -38.037958 7.127440 -13.995775 11.104246 -0.003091 -0.026914 0.014058 -6.240936 -23.780692 5.685592 88.465664 81.993090 89.052807 1.566767 -22.117360 -18.909818 0.014703 0.020738 0.038311
-39.056223 57.789284 12.161751 176.301667 -45.041008 -2.318382 3.078823 20.501336 3.426062 1.567444 11.739283 1.743653 2.044387 14.672147 2.336618 1.542410 11.729853 1.726572 1.765418 13.450459 0.587841 3.046929 -10.789829 0.347538 0.058527 2.280782 0.052473 -5.375785 -9.327162 -9.838276 -90.638514 -61.420888 136.328342 10.399911 14.578084 -23.856428 -9.895371 0.120549 0.733351 12.847939 -28.218108 8.325439 176.164148 -59.819429 -175.384039 -13.686391 -13.939187 18.731295 2.815472 -27.061201 -3.844110 -34.326634 74.097072 -38.002772 7.109407 -13.987201 11.114846 -0.005717 -0.027845 0.017246 -6.264674 -23.798025 5.711028 88.456025 82.013130 89.041815 1.564433 -22.113648 -18.891801 0.013877 0.022194 0.039457
-39.065995 57.788865 12.165240 176.323113 -45.027451 -2.342455 3.076073 20.486718 3.405466 1.556556 11.741791 1.736837 2.026013 14.659168 2.273874 1.565696 11.734042 1.768242 1.783841 13.474339 0.617010 3.063033 -10.767458 0.386348 0.038227 2.352529 0.070650 -5.386351 -9.395100 -9.862348 -90.582805 -61.439952 136.293081 10.380996 14.560027 -23.841709 -9.824115 0.203506 0.801188 12.824330 -27.896843 8.378701 176.305560 -59.664859 -175.629924 -13.748070 -14.182473 18.433439 2.830502 -27.061538 -3.835727 -34.270583 74.085673 -37.955469 7.111672 -13.985368 11.132839 -0.026732 -0.027135 0.023871 -6.204003 -23.830099 5.722159 88.430443 82.044198 89.040562 1.547798 -22.105036 -18.842482 0.008860 0.018413 0.036390
-39.073602 57.789568 12.167585 176.335298 -45.018825 -2.377550 3.075570 20.482251 3.402954 1.558187 11.739354 1.747038 2.018591 14.659904 2.257196 1.557522 11.737640 1.753696 1.793663 13.492682 0.643564 3.041322 -10.648347 0.494238 0.031271 2.413595 0.082931 -5.422234 -9.450948 -9.884120 -90.543647 -61.402462 136.313286 10.376179 14.549785 -23.835602 -9.739039 0.283279 0.879462 12.830041 -27.624932 8.400843 176.334944 -59.507213 -175.808636 -13.796609 -14.379979 18.155797 2.850070 -27.056703 -3.810875 -34.308684 74.066586 -37.965822 7.114203 -13.988508 11.129295 -0.000376 -0.021188 0.025731 -6.201942 -23.840721 5.750380 88.436482 82.051810 89.050168 1.545416 -22.107195 -18.838579 0.007412 0.019645 0.036029
-39.081584 57.790086 12.169624 176.336154 -45.004580 -2.405639 3.069365 20.496889 3.361460 1.580026 11.713844 1.791765 2.024380 14.656175 2.264888 1.536912 11.755021 1.728653 1.768402 13.543717 0.665901 3.051701 -10.607012 0.563115 0.002848 2.512200 0.072175 -5.453501 -9.539553 -9.883535 -90.522506 -61.364291 136.365489 10.384208 14.577729 -23.843529 -9.646216 0.353837 0.959920 12.856474 -27.399815 8.395224 176.274465 -59.367204 -175.935613 -13.826432 -14.533896 17.900567 2.851475 -27.066404 -3.780796 -34.285778 74.056001 -37.948289 7.116873 -13.983104 11.136795 -0.001108 -0.021159 0.028040 -6.191934 -23.856589 5.777505 88.441155 82.057171 89.069528 1.541649 -22.109751 -18.839991 0.011272 0.019307 0.036004
-39.090149 57.790926 12.170722 176.333777 -44.988982 -2.429396 3.074694 20.489229 3.371497 1.558314 11.746381 1.744793 2.046244 14.633575 2.282533 1.553100 11.747107 1.746822 1.752224 13.580866 0.681474 3.037994 -10.556079 0.616400 -0.001598 2.544840 0.065307 -5.522631 -9.540983 -9.900047 -90.464468 -61.362149 136.330926 10.378436 14.581581 -23.815862 -9.561110 0.426692 1.025123 12.900453 -27.212656 8.366271 176.138181 -59.254795 -176.024566 -13.839304 -14.654148 17.671757 2.877054 -27.072278 -3.753431 -34.322994 74.030939 -37.982766 7.114468 -13.979715 11.157729 -0.003206 -0.018156 0.031317 -6.114420 -23.882665 5.794972 88.439964 82.077539 89.117786 1.527293 -22.116089 -18.814821 0.011745 0.017775 0.036459
-39.100098 57.793020 12.169796 176.333891 -44.980486 -2.446224 3.074517 20.490398 3.373827 1.554338 11.761234 1.737283 2.031443 14.656611 2.262381 1.580386 11.712962 1.765082 1.758676 13.580161 0.691799 2.992521 -10.454021 0.679440 0.000849 2.563668 0.055043 -5.557091 -9.546634 -9.894950 -90.438773 -61.344571 136.327080 10.386107 14.574462 -23.803401 -9.472743 0.489216 1.084547 12.963257 -27.051000 8.324411 175.926688 -59.170317 -176.073926 -13.840760 -14.747455 17.469463 2.901373 -27.070777 -3.738656 -34.362852 74.014529 -38.004079 7.097887 -13.980620 11.159235 0.008258 -0.012957 0.042585 -6.062763 -23.898698 5.803820 88.457818 82.085757 89.162720 1.512718 -22.120839 -18.788861 0.011291 0.015130 0.031769
-39.111775 57.795023 12.168145 176.327432 -44.968949 -2.446862 3.069627 20.501962 3.353196 1.560355 11.762434 1.745660 2.040544 14.639276 2.268976 1.568661 11.737818 1.757035 1.751158 13.609030 0.713504 2.963550 -10.376451 0.719234 0.015791 2.554069 0.044681 -5.653938 -9.481760 -9.886871 -90.467061 -61.305266 136.426232 10.414647 14.565004 -23.777348 -9.376564 0.520255 1.141146 13.042292 -26.905091 8.276731 175.653764 -59.114145 -176.083224 -13.835334 -14.817979 17.292926 2.915133 -27.077766 -3.733545 -34.371998 73.998955 -38.020414 7.086553 -13.974088 11.169487 0.015585 -0.012211 0.045545 -6.016815 -23.915815 5.805991 88.499417 82.087245 89.200177 1.494300 -22.129012 -18.744701 0.003278 0.014924 0.023946
